<?xml version="1.0" standalone="no"?>
<!DOCTYPE svg PUBLIC "-//W3C//DTD SVG 20010904//EN"
 "http://www.w3.org/TR/2001/REC-SVG-20010904/DTD/svg10.dtd">
<svg version="1.0" xmlns="http://www.w3.org/2000/svg"
 width="1024.000000pt" height="1024.000000pt" viewBox="0 0 1024.000000 1024.000000"
 preserveAspectRatio="xMidYMid meet">
<metadata>
Created by potrace 1.14, written by Peter Selinger 2001-2017
</metadata>
<g transform="translate(0.000000,1024.000000) scale(0.100000,-0.100000)"
fill="#000000" stroke="none">
<path d="M4750 10234 c-19 -2 -87 -9 -150 -15 -1047 -97 -2067 -540 -2874
-1250 -899 -790 -1504 -1906 -1675 -3089 -41 -282 -46 -367 -46 -760 1 -419 8
-519 66 -860 130 -776 458 -1543 934 -2185 357 -482 842 -935 1342 -1254 673
-428 1390 -680 2208 -778 190 -22 850 -26 1040 -5 872 95 1633 368 2345 841
462 307 920 744 1255 1196 476 642 804 1409 934 2185 59 347 66 440 66 870 0
318 -4 424 -18 545 -75 624 -232 1167 -491 1700 -262 539 -590 991 -1024 1416
-388 380 -793 670 -1272 910 -555 278 -1098 438 -1740 515 -128 15 -806 29
-900 18z"/>
</g>
</svg>
